<?xml version="1.0" standalone="no"?><!DOCTYPE svg PUBLIC "-//W3C//DTD SVG 1.1//EN" "http://www.w3.org/Graphics/SVG/1.1/DTD/svg11.dtd"><svg t="1753878741973" class="icon" viewBox="0 0 1024 1024" version="1.1" xmlns="http://www.w3.org/2000/svg" p-id="6225" xmlns:xlink="http://www.w3.org/1999/xlink" width="200" height="200"><path d="M784.920381 726.479238l-6.022095-26.526476 16.384-21.74781c40.082286-53.199238 63.390476-117.857524 63.390476-187.538285 0-176.737524-152.185905-325.339429-346.672762-325.339429-194.486857 0-346.672762 148.601905-346.672762 325.339429S317.513143 816.006095 512 816.006095c64.048762 0 123.757714-16.262095 174.933333-44.422095l24.380953-13.409524 25.795047 10.386286 63.073524 25.380571-15.286857-67.462095z m132.412952-235.812571c0 83.090286-27.867429 160.01219-75.215238 222.841904l26.502095 117.101715a32.01219 32.01219 0 0 1-43.154285 36.766476l-110.250667-44.373333A420.815238 420.815238 0 0 1 512 874.666667c-223.865905 0-405.333333-171.934476-405.333333-384S288.134095 106.666667 512 106.666667s405.333333 171.934476 405.333333 384zM341.333333 533.333333a42.666667 42.666667 0 1 0 0-85.333333 42.666667 42.666667 0 0 0 0 85.333333z m170.666667 0a42.666667 42.666667 0 1 0 0-85.333333 42.666667 42.666667 0 0 0 0 85.333333z m213.333333-42.666666a42.666667 42.666667 0 1 1-85.333333 0 42.666667 42.666667 0 0 1 85.333333 0z" p-id="6226" fill="#515151"></path></svg>