<?xml version="1.0" standalone="no"?><!DOCTYPE svg PUBLIC "-//W3C//DTD SVG 1.1//EN" "http://www.w3.org/Graphics/SVG/1.1/DTD/svg11.dtd"><svg t="1753878978408" class="icon" viewBox="0 0 1024 1024" version="1.1" xmlns="http://www.w3.org/2000/svg" p-id="2126" xmlns:xlink="http://www.w3.org/1999/xlink" width="200" height="200"><path d="M512 928.384a25.6 25.6 0 0 1-15.68-5.376c-10.368-8-254.592-197.632-392.512-364.096C51.2 495.424 25.6 432.96 25.6 368a272.768 272.768 0 0 1 272.448-272.448c52.416 0 103.296 14.976 147.2 43.264a25.6 25.6 0 1 1-27.776 43.008 220.16 220.16 0 0 0-119.424-35.072A221.504 221.504 0 0 0 76.8 368c0 52.544 21.76 104.32 66.432 158.272C257.92 664.704 455.232 825.088 512 870.208c56.768-45.12 254.08-205.568 368.768-343.936 44.672-54.016 66.432-105.728 66.432-158.272a221.504 221.504 0 0 0-221.248-221.248 222.016 222.016 0 0 0-191.744 111.232l-32.64 55.232 77.504 51.84a25.664 25.664 0 0 1 5.184 37.952L518.848 478.976l17.984 69.248a25.6 25.6 0 1 1-49.6 12.864L465.92 478.912a25.472 25.472 0 0 1 5.376-23.104l55.296-64.256-73.6-49.28a25.6 25.6 0 0 1-7.808-34.304l44.8-75.776a273.28 273.28 0 0 1 235.968-136.64A272.64 272.64 0 0 1 998.4 367.936c0 64.896-25.6 127.36-78.208 190.912-137.92 166.464-382.208 356.096-392.512 364.096a25.408 25.408 0 0 1-15.616 5.376z" p-id="2127" fill="#515151"></path></svg>