<?xml version="1.0" standalone="no"?><!DOCTYPE svg PUBLIC "-//W3C//DTD SVG 1.1//EN" "http://www.w3.org/Graphics/SVG/1.1/DTD/svg11.dtd"><svg t="1753876585506" class="icon" viewBox="0 0 1261 1024" version="1.1" xmlns="http://www.w3.org/2000/svg" p-id="2439" xmlns:xlink="http://www.w3.org/1999/xlink" width="246.2890625" height="200"><path d="M332.967933 2.591455c115.012887-2.14818 163.398089 56.023176 225.388432 106.113283a385.92228 385.92228 0 0 1 71.162732 75.800074l4.29636-3.40981a306.47371 306.47371 0 0 1 66.866372-71.606007c65.366055-52.749759 134.960274-130.73211 266.374346-102.873964a456.471246 456.471246 0 0 1 72.253871 19.470014 346.129799 346.129799 0 0 1 211.408212 228.457261 337.571176 337.571176 0 0 1-37.746595 254.47411c-92.883221 157.124038-229.957577 271.454963-372.044355 379.034465-42.179348 31.91582-84.563285 63.251973-128.345243 94.213046a175.639306 175.639306 0 0 1-72.253871 40.065266c-44.327528 8.319936-73.106323-25.948653-95.986147-42.213446-73.651893-52.54517-143.212014-107.511305-213.522294-162.443342C217.102594 728.710466 84.733775 607.253039 24.550631 466.80297a351.790084 351.790084 0 0 1-7.53568-236.095235 400.379874 400.379874 0 0 1 61.376578-105.056242A353.938264 353.938264 0 0 1 249.836769 16.298891C272.989378 9.411075 310.97466 11.286471 332.967933 2.591455z m801.305318 275.069362l-30.176817 8.660917c16.844461 149.554261-68.912257 230.128068-132.675702 309.71303a221.637641 221.637641 0 0 1-47.430455 45.486864l4.29636 4.330458 19.435916 22.743432 3.23932-3.40981a232.617229 232.617229 0 0 0 62.535913-61.751657 557.19703 557.19703 0 0 0 118.559089-200.019446 248.37055 248.37055 0 0 0 6.478638-125.617395h-4.330458z" fill="#FF0042" p-id="2440"></path></svg>