<?xml version="1.0" standalone="no"?><!DOCTYPE svg PUBLIC "-//W3C//DTD SVG 1.1//EN" "http://www.w3.org/Graphics/SVG/1.1/DTD/svg11.dtd"><svg t="1753878901757" class="icon" viewBox="0 0 1024 1024" version="1.1" xmlns="http://www.w3.org/2000/svg" p-id="7540" xmlns:xlink="http://www.w3.org/1999/xlink" width="200" height="200"><path d="M361.301333 981.333333a46.08 46.08 0 0 1-46.890666-46.933333v-223.701333H89.6A46.08 46.08 0 0 1 42.666667 663.765333c0-26.624 20.309333-46.933333 46.848-46.933333h271.786666a46.08 46.08 0 0 1 46.848 46.933333V934.4c0 26.581333-21.888 46.933333-46.848 46.933333zM361.301333 408.746667h-271.786666A46.08 46.08 0 0 1 42.666667 361.813333c0-26.581333 20.309333-46.933333 46.848-46.933333H314.453333V89.6c0-26.581333 20.309333-46.933333 46.890667-46.933333a46.08 46.08 0 0 1 46.848 46.933333v272.213333c0 25.045333-21.888 46.933333-46.848 46.933334zM934.485333 408.746667h-271.786666a46.08 46.08 0 0 1-46.848-46.933334V89.6c0-26.581333 20.309333-46.933333 46.848-46.933333a46.08 46.08 0 0 1 46.890666 46.933333v225.28h224.853334A46.08 46.08 0 0 1 981.333333 361.813333c0 26.581333-21.845333 46.933333-46.848 46.933334zM662.698667 981.333333a46.08 46.08 0 0 1-46.848-46.933333v-270.634667c0-26.624 20.309333-46.933333 46.848-46.933333h271.786666a46.08 46.08 0 0 1 46.848 46.933333c0 26.581333-20.309333 46.933333-46.848 46.933334H709.546667V934.4c0 26.581333-21.888 46.933333-46.890667 46.933333z" fill="#515151" p-id="7541"></path></svg>