<?xml version="1.0" standalone="no"?><!DOCTYPE svg PUBLIC "-//W3C//DTD SVG 1.1//EN" "http://www.w3.org/Graphics/SVG/1.1/DTD/svg11.dtd"><svg t="1753876517758" class="icon" viewBox="0 0 1170 1024" version="1.1" xmlns="http://www.w3.org/2000/svg" p-id="6519" xmlns:xlink="http://www.w3.org/1999/xlink" width="228.515625" height="200"><path d="M300.836571 175.981714a29.257143 29.257143 0 1 1 2.048 58.514286 87.771429 87.771429 0 0 0-84.626285 90.697143 29.257143 29.257143 0 1 1-58.514286 2.121143 146.285714 146.285714 0 0 1 141.165714-151.332572z" fill="#515151" p-id="6520"></path><path d="M687.762286 179.931429l-44.617143 46.738285a81.554286 81.554286 0 0 1-114.322286 0l-46.445714-46.811428c-89.234286-89.6-234.496-97.426286-325.632-13.604572C59.830857 255.853714 55.954286 409.819429 148.992 503.222857l381.805714 383.853714c29.037714 29.257143 79.433143 29.257143 108.544 0l381.805715-383.853714c92.964571-93.476571 89.088-247.442286-7.826286-337.042286-91.062857-81.92-234.496-76.068571-325.485714 13.604572z m-54.272-54.637715c118.272-118.857143 308.150857-128.585143 432.201143-17.554285 131.803429 120.832 135.68 325.485714 11.629714 450.121142l-383.707429 383.853715a154.989714 154.989714 0 0 1-218.989714 0L94.72 557.860571C-29.257143 433.152-25.380571 228.571429 106.422857 107.812571c122.075429-113.005714 313.929143-101.376 432.128 17.554286l46.518857 46.738286c1.901714 1.901714 3.876571 1.901714 5.851429 0l42.569143-46.811429z" fill="#515151" p-id="6521"></path></svg>